<?xml version="1.0" encoding="utf-8"?>
<!-- Generator: Adobe Illustrator 22.0.1, SVG Export Plug-In . SVG Version: 6.00 Build 0)  -->
<svg version="1.1" id="Layer_1" xmlns="http://www.w3.org/2000/svg" xmlns:xlink="http://www.w3.org/1999/xlink" x="0px" y="0px"
	 viewBox="0 0 25 25" style="enable-background:new 0 0 25 25;" xml:space="preserve">
<style type="text/css">
	.st0{fill:#FFFFFF;}
	.st1{fill:#2359A0;}
</style>
<g id="group-281" transform="translate(2213 -71)">
	<circle id="ellipse" class="st0" cx="-2200.5" cy="83.5" r="12.5"/>
	<path id="path" class="st1" d="M-2205.2,83.5c0-0.2,0.1-0.3,0.2-0.4l6.7-6.7c0.2-0.2,0.6-0.2,0.8,0c0,0,0,0,0,0l1.5,1.5
		c0.2,0.2,0.2,0.6,0,0.8c0,0,0,0,0,0l-4.8,4.8l4.8,4.8c0.2,0.2,0.2,0.6,0,0.8c0,0,0,0,0,0l-1.5,1.5c-0.2,0.2-0.6,0.2-0.8,0
		c0,0,0,0,0,0l-6.7-6.7C-2205.1,83.8-2205.2,83.7-2205.2,83.5L-2205.2,83.5z"/>
</g>
</svg>
