<svg xmlns="http://www.w3.org/2000/svg" viewBox="0 0 26.68 28.7"><defs><style>.cls-1{fill:#fff;}.cls-2{fill:#757575;}.cls-3{fill:#9d5e00;}</style></defs><title>Calendar</title><g id="Layer_2" data-name="Layer 2"><g id="Layer_1-2" data-name="Layer 1"><rect class="cls-1" x="0.17" y="2.64" width="26.34" height="25.89" rx="4.9" ry="4.9"/><path class="cls-2" d="M21.61,2.81a4.75,4.75,0,0,1,4.73,4.73V23.63a4.75,4.75,0,0,1-4.73,4.73H5.07A4.75,4.75,0,0,1,.34,23.63V7.54A4.75,4.75,0,0,1,5.07,2.81H21.61m0-.34H5.07A5.07,5.07,0,0,0,0,7.54V23.63A5.07,5.07,0,0,0,5.07,28.7H21.61a5.07,5.07,0,0,0,5.07-5.07V7.54a5.07,5.07,0,0,0-5.07-5.07Z"/><path class="cls-3" d="M.34,11.34V6A3.2,3.2,0,0,1,3.53,2.81H23.14A3.2,3.2,0,0,1,26.34,6v5.43"/><rect class="cls-2" x="3.48" width="2.92" height="7.08" rx="1.46" ry="1.46"/><rect class="cls-2" x="20.42" width="2.92" height="7.08" rx="1.46" ry="1.46"/><rect class="cls-2" x="3.48" y="14.04" width="2.92" height="2.92"/><rect class="cls-2" x="7.75" y="14.04" width="2.92" height="2.92"/><rect class="cls-2" x="12.03" y="14.04" width="2.92" height="2.92"/><rect class="cls-2" x="16.3" y="14.04" width="2.92" height="2.92"/><rect class="cls-2" x="20.57" y="14.04" width="2.92" height="2.92"/><rect class="cls-2" x="3.48" y="18.31" width="2.92" height="2.92"/><rect class="cls-2" x="7.75" y="18.31" width="2.92" height="2.92"/><rect class="cls-2" x="12.03" y="18.31" width="2.92" height="2.92"/><rect class="cls-2" x="16.3" y="18.31" width="2.92" height="2.92"/><rect class="cls-2" x="20.57" y="18.31" width="2.92" height="2.92"/><rect class="cls-2" x="3.48" y="22.59" width="2.92" height="2.92"/><rect class="cls-2" x="7.75" y="22.59" width="2.92" height="2.92"/><rect class="cls-2" x="12.03" y="22.59" width="2.92" height="2.92"/><rect class="cls-2" x="16.3" y="22.59" width="2.92" height="2.92"/><rect class="cls-2" x="20.57" y="22.59" width="2.92" height="2.92"/></g></g></svg>