<svg xmlns="http://www.w3.org/2000/svg" viewBox="0 0 50 49.777">
  <defs>
    <style>
      .cls-1 {
        fill: #00753b;
      }

      .cls-2 {
        fill: #fff;
      }
    </style>
  </defs>
  <g id="group-57" transform="translate(0.037 0.038)">
    <path id="path" class="cls-1" d="M44.739,24.851l4.469,4.469a2.176,2.176,0,0,1-1.117,3.8l-6.034,1.564,1.788,6.034a2.46,2.46,0,0,1-2.905,2.905l-6.034-1.788-1.564,6.034a2.5,2.5,0,0,1-1.564,1.788h-.67a2.029,2.029,0,0,1-1.564-.67l-4.469-4.469L20.6,48.985a2.176,2.176,0,0,1-3.8-1.117l-1.564-6.034L8.985,43.622a2.144,2.144,0,0,1-2.235-.67,2.144,2.144,0,0,1-.67-2.235l1.788-6.034L1.834,33.119A2.5,2.5,0,0,1,.046,31.555a2.144,2.144,0,0,1,.67-2.235l4.469-4.469L.717,20.381a1.7,1.7,0,0,1-.67-2.011,2.165,2.165,0,0,1,1.788-1.564l6.034-1.564L6.08,8.985A2.144,2.144,0,0,1,6.75,6.75a2.144,2.144,0,0,1,2.235-.67l6.034,1.788,1.564-6.034A2.425,2.425,0,0,1,18.37.046,2.144,2.144,0,0,1,20.6.717l4.469,4.469L29.544.717a2.144,2.144,0,0,1,2.235-.67,1.9,1.9,0,0,1,1.564,1.564l1.564,6.034L40.94,5.856a2.144,2.144,0,0,1,2.235.67,2.144,2.144,0,0,1,.67,2.235l-1.788,6.034,6.034,1.564a2.5,2.5,0,0,1,1.788,1.564,2.144,2.144,0,0,1-.67,2.235Z" transform="translate(0 0)"/>
    <path id="path-2" data-name="path" class="cls-2" d="M33.4,10.569a3.176,3.176,0,0,1-.447,1.341L19.549,25.318,17.09,27.776c-.447.447-.67.447-1.341.447a3.176,3.176,0,0,1-1.341-.447l-2.458-2.458-6.7-6.7c-.447-.447-.447-.67-.447-1.341a2.4,2.4,0,0,1,.447-1.341l2.458-2.458c.447-.447.67-.447,1.341-.447a2.4,2.4,0,0,1,1.341.447l5.363,5.363L27.817,6.547c.447-.447.67-.447,1.341-.447a3.176,3.176,0,0,1,1.341.447l2.458,2.458A5.685,5.685,0,0,1,33.4,10.569Z" transform="translate(5.973 7.578)"/>
  </g>
</svg>
