<svg xmlns="http://www.w3.org/2000/svg" xmlns:xlink="http://www.w3.org/1999/xlink" viewBox="0 0 17.93 27.36"><defs><style>.cls-1,.cls-2,.cls-5{stroke:#9d5e00;}.cls-1,.cls-2,.cls-4,.cls-5{stroke-miterlimit:10;}.cls-1,.cls-2{stroke-width:0.25px;}.cls-1{fill:url(#linear-gradient);}.cls-2{fill:url(#linear-gradient-2);}.cls-3,.cls-5{fill:#fff47c;}.cls-4{stroke:#fff47c;fill:url(#radial-gradient);}.cls-4,.cls-5{stroke-width:0.19px;}</style><linearGradient id="linear-gradient" x1="8.98" y1="3.43" x2="2.7" y2="26.51" gradientUnits="userSpaceOnUse"><stop offset="0" stop-color="#fff47c"/><stop offset="0.18" stop-color="#fff177"/><stop offset="0.41" stop-color="#ffe868"/><stop offset="0.65" stop-color="#ffda4f"/><stop offset="0.91" stop-color="#ffc62d"/><stop offset="1" stop-color="#ffbe1f"/></linearGradient><linearGradient id="linear-gradient-2" x1="8.92" y1="3.49" x2="15.39" y2="26.96" gradientUnits="userSpaceOnUse"><stop offset="0" stop-color="#fff47c"/><stop offset="0.18" stop-color="#fff176"/><stop offset="0.41" stop-color="#ffe766"/><stop offset="0.68" stop-color="#ffd74a"/><stop offset="0.96" stop-color="#ffc125"/><stop offset="1" stop-color="#ffbe1f"/></linearGradient><radialGradient id="radial-gradient" cx="8.95" cy="8.22" r="6.48" gradientUnits="userSpaceOnUse"><stop offset="0" stop-color="#fff47c"/><stop offset="1" stop-color="#ffbe1f"/></radialGradient></defs><title>goals</title><g id="Layer_2" data-name="Layer 2"><g id="Layer_1-2" data-name="Layer 1"><polygon class="cls-1" points="11.98 2.47 8.93 10 5.38 27.1 3.3 24.82 0.19 25.71 5.64 9.24 6.79 1.08 9.04 3.4 11.98 2.47"/><polygon class="cls-2" points="11.14 1.08 12.26 9.12 17.73 25.71 14.8 24.77 12.55 27.1 9.03 10.12 5.95 2.47 9.06 3.36 11.14 1.08"/><path class="cls-3" d="M9,1.32a6.9,6.9,0,1,0,6.9,6.9A6.9,6.9,0,0,0,9,1.32ZM9,14.83a6.62,6.62,0,1,1,6.62-6.62A6.62,6.62,0,0,1,9,14.83Z"/><circle class="cls-4" cx="8.95" cy="8.22" r="6.48"/><path class="cls-5" d="M16.38,9.69c.1-.5.69-1,.69-1.48s-.59-1-.69-1.48.26-1.16.07-1.63-.92-.68-1.2-1.1-.2-1.17-.56-1.53-1.1-.27-1.53-.56-.62-1-1.1-1.2-1.12.17-1.63.07S9.47.1,9,.1,8,.68,7.47.78,6.31.52,5.84.71s-.68.92-1.1,1.2-1.17.2-1.53.56S2.94,3.58,2.65,4s-1,.62-1.2,1.1.17,1.12.07,1.63-.69,1-.69,1.48.59,1,.69,1.48-.26,1.16-.07,1.63.92.68,1.2,1.1.2,1.17.56,1.53,1.1.27,1.53.56.62,1,1.1,1.2,1.12-.17,1.63-.07,1,.69,1.48.69,1-.59,1.48-.69,1.16.26,1.63.07.68-.92,1.1-1.2,1.17-.2,1.53-.56.27-1.1.56-1.53,1-.62,1.2-1.1S16.28,10.2,16.38,9.69ZM9,15.25a7,7,0,1,1,7-7A7,7,0,0,1,9,15.25Z"/></g></g></svg>