<?xml version="1.0" encoding="utf-8"?>
<!-- Generator: Adobe Illustrator 22.0.1, SVG Export Plug-In . SVG Version: 6.00 Build 0)  -->
<svg version="1.1" id="Layer_1" xmlns="http://www.w3.org/2000/svg" xmlns:xlink="http://www.w3.org/1999/xlink" x="0px" y="0px"
	 viewBox="0 0 302 196" style="enable-background:new 0 0 302 196;" xml:space="preserve">
<style type="text/css">
	.st0{fill:#245AA1;}
	.st1{fill:#007042;}
	.st2{fill:url(#SVGID_1_);}
</style>
<title>Logo</title>
<g id="Layer_2_1_">
	<g id="Layer_1-2">
		<path d="M1.4,167.5c0-15.8,4.6-27.6,15.5-27.6c7.8,0,10.7,6.2,12.4,11.6l-6.7,2.5c-1.2-4.1-2.6-6.6-5.7-6.6c-5.1,0-7,8.6-7,20.2
			s1.8,20.2,7,20.2c3.5,0,5-3.4,5.8-7.9l6.8,2.5c-1.4,6-4.5,12.9-12.6,12.9C6,195.1,1.4,183.2,1.4,167.5z"/>
		<path d="M34.4,167.5c0-15.4,4.4-27.6,15.4-27.6s15.5,12.2,15.5,27.6s-4.5,27.6-15.5,27.6S34.4,183,34.4,167.5z M56.8,167.5
			c0-11.3-1.8-20.2-7-20.2s-6.9,8.9-6.9,20.2c0,11.1,1.8,20.2,6.9,20.2S56.8,178.6,56.8,167.5z"/>
		<path d="M90.8,194.2l-1.8-10.9H78.4l-1.8,10.9H68l10.9-53.4h9.6l10.9,53.4H90.8z M83.6,150.3l-4.3,25.6H88L83.6,150.3z"/>
		<path d="M102,167.5c0-15.8,4.6-27.6,15.5-27.6c7.8,0,10.7,6.2,12.4,11.6l-6.7,2.5c-1.2-4.1-2.6-6.6-5.7-6.6c-5.1,0-7,8.6-7,20.2
			s1.8,20.2,7,20.2c3.5,0,5-3.4,5.8-7.9l6.8,2.5c-1.4,6-4.5,12.9-12.6,12.9C106.5,195.1,102,183.2,102,167.5z"/>
		<path d="M156.2,194.2v-23.8h-11.3v23.8h-8.3v-53.4h8.3v22.2h11.3v-22.2h8.4v53.4H156.2z"/>
		<path d="M180.4,187.5V159h-4v-3.4h4V145h3.9v10.6h5.4v3.4h-5.4v28.1c0,3,0.6,4.6,2.6,4.6c1.1,0,2.1-0.6,2.7-1.5l1.7,2.7
			c-1.2,1.5-3.1,2.4-5,2.3C182.2,195.1,180.4,192.6,180.4,187.5z"/>
		<path d="M195.6,174.8c0-10.6,3-20.2,11.4-20.2s11.3,9.7,11.3,20.2s-3,20.3-11.3,20.3S195.6,185.4,195.6,174.8z M214,174.8
			c0-8.1-1.4-16.7-7-16.7s-7.1,8.6-7.1,16.7c0,8.1,1.4,16.8,7.1,16.8S214,183,214,174.8L214,174.8z"/>
		<path d="M232.3,194.2v-53.4h21.9v7.4h-13.5v15.1h13v7.4h-13v23.5H232.3z"/>
		<path d="M261.5,194.2v-53.4h8.3v53.4H261.5z"/>
		<path d="M284,194.2v-46h-8.2v-7.4h24.8v7.4h-8.2v46H284z"/>
		<path class="st0" d="M159.1,104.6c-23.7,0-42.9-19.2-42.9-42.9c0-23.7,19.2-42.9,42.9-42.9c11.4,0,22.3,4.5,30.3,12.5l12.7-12.7
			c-23.8-23.8-62.3-23.8-86.1,0s-23.8,62.3,0,86.1s62.3,23.8,86.1,0c0,0,0.1-0.1,0.1-0.1L189.5,92
			C181.5,100.1,170.6,104.6,159.1,104.6z"/>
		<path class="st1" d="M157,60.7c2.5,0.6,5.1-0.9,5.7-3.4s-0.9-5.1-3.4-5.7c-2.5-0.6-5,0.8-5.7,3.3C152.9,57.4,154.5,60,157,60.7z"
			/>
		
			<linearGradient id="SVGID_1_" gradientUnits="userSpaceOnUse" x1="142.1006" y1="109.2456" x2="175.0006" y2="150.7256" gradientTransform="matrix(1 0 0 -1 -2.88 197.74)">
			<stop  offset="0" style="stop-color:#23599F"/>
			<stop  offset="0.17" style="stop-color:#1B5E8B"/>
			<stop  offset="0.53" style="stop-color:#0D6863"/>
			<stop  offset="0.82" style="stop-color:#036E4B"/>
			<stop  offset="1" style="stop-color:#007042"/>
		</linearGradient>
		<path class="st2" d="M160.2,88.4c-2.1-2.4-4.7-4.4-7.4-5.9c3.7-3.7,7.1-7.6,10.2-11.8c5.8-7.5,10.4-15.7,13.7-24.6
			c0,0-6.2,10.8-17.6,17c-13.8,7.6-34.4,9.2-34.4,9.2c5.7,1.4,11.6,1.6,17.4,0.6c4.4-0.7,6.6-0.7,8-1.2c0.2-0.1,0.2,0.2,0.1,0.7
			c-3.3,4.4-9.1,11.5-15.4,16.4c-11.3,8.9-17.8,13.6-17.8,13.6s4-1.7,14.2-6.4c4.1-1.8,8.1-4.1,11.7-6.8l-0.2,0.4l3.9-2.7
			c2.5,1.3,6.6,3.5,7.7,5.2c2.4,3.7-11.3,10.3-16.8,14c0,0,8.9-2,14.7-5C163.3,95.7,163.7,92.7,160.2,88.4z"/>
	</g>
</g>
</svg>
