<svg xmlns="http://www.w3.org/2000/svg" viewBox="0 0 182.69 52"><defs><style>.cls-1{fill:#fff;}</style></defs><title>logoWhite</title><g id="Layer_2" data-name="Layer 2"><g id="Layer_1-2" data-name="Layer 1"><path class="cls-1" d="M52.26,29.64c0-6.89,2-12.06,6.78-12.06,3.43,0,4.68,2.69,5.42,5.07l-2.94,1.08c-.52-1.78-1.12-2.9-2.48-2.9-2.24,0-3,3.74-3,8.81s.8,8.81,3,8.81c1.54,0,2.17-1.5,2.52-3.46l3,1.08c-.63,2.62-2,5.63-5.49,5.63C54.25,41.7,52.26,36.49,52.26,29.64Z"/><path class="cls-1" d="M66.66,29.64c0-6.75,1.92-12.06,6.75-12.06s6.78,5.31,6.78,12.06-2,12.06-6.78,12.06S66.66,36.42,66.66,29.64Zm9.79,0c0-4.93-.77-8.81-3-8.81s-3,3.88-3,8.81.77,8.81,3,8.81S76.45,34.49,76.45,29.64Z"/><path class="cls-1" d="M91.31,41.28l-.8-4.75H85.89l-.8,4.75H81.35L86.1,18H90.3l4.75,23.32ZM88.2,22.12,86.31,33.31h3.78Z"/><path class="cls-1" d="M96.2,29.64c0-6.89,2-12.06,6.78-12.06,3.43,0,4.68,2.69,5.42,5.07l-2.94,1.08c-.52-1.78-1.12-2.9-2.48-2.9-2.24,0-3,3.74-3,8.81s.8,8.81,3,8.81c1.54,0,2.17-1.5,2.52-3.46l3,1.08c-.63,2.62-2,5.63-5.49,5.63C98.2,41.7,96.2,36.49,96.2,29.64Z"/><path class="cls-1" d="M119.91,41.28V30.89H115V41.28h-3.64V18H115v9.72h4.93V18h3.67V41.28Z"/><path class="cls-1" d="M130.46,38.34V25.9h-1.75v-1.5h1.75V19.78h1.71v4.61h2.38v1.5h-2.38V38.17c0,1.33.24,2,1.15,2a1.45,1.45,0,0,0,1.19-.66l.73,1.19a2.59,2.59,0,0,1-2.17,1C131.27,41.7,130.46,40.61,130.46,38.34Z"/><path class="cls-1" d="M137.14,32.82c0-4.61,1.33-8.84,5-8.84S147,28.2,147,32.82s-1.29,8.88-4.93,8.88S137.14,37.43,137.14,32.82Zm8,0c0-3.53-.59-7.31-3.08-7.31S139,29.29,139,32.82s.63,7.34,3.11,7.34S145.18,36.38,145.18,32.82Z"/><path class="cls-1" d="M152.84,41.28V18h9.54v3.22h-5.91v6.61h5.66V31h-5.66V41.28Z"/><path class="cls-1" d="M165.6,41.28V18h3.64V41.28Z"/><path class="cls-1" d="M175.45,41.28V21.18h-3.6V18h10.84v3.22h-3.6v20.1Z"/><path class="cls-1" d="M26,44.31A18.31,18.31,0,1,1,38.94,13l5.44-5.44a26,26,0,1,0,0,36.74L39,38.91A18.25,18.25,0,0,1,26,44.31Z"/><ellipse class="cls-1" cx="25.63" cy="23.61" rx="2.01" ry="2.07" transform="translate(-4.02 41.93) rotate(-74.36)"/><path class="cls-1" d="M26.46,37.39a12.41,12.41,0,0,0-3.18-2.54,43.83,43.83,0,0,0,4.38-5,40.59,40.59,0,0,0,5.87-10.49A21.81,21.81,0,0,1,26,26.59c-5.89,3.25-14.68,3.91-14.68,3.91a18.15,18.15,0,0,0,7.43.27c1.86-.29,2.8-.3,3.41-.5.09,0,.1.09,0,.31a41.32,41.32,0,0,1-6.58,7c-4.81,3.82-7.6,5.8-7.6,5.8s1.7-.73,6.08-2.73a26.78,26.78,0,0,0,5-2.89l-.08.16,1.67-1.17A10.58,10.58,0,0,1,24,39c1,1.56-4.83,4.4-7.18,6a32.83,32.83,0,0,0,6.29-2.12C27.78,40.51,27.92,39.2,26.46,37.39Z"/></g></g></svg>