<?xml version="1.0" encoding="UTF-8"?><svg id="Layer_2" xmlns="http://www.w3.org/2000/svg" viewBox="0 0 42 42"><defs><style>.cls-1{fill:none;stroke:#2359a0;stroke-miterlimit:10;stroke-width:.84px;}.cls-2,.cls-3{fill:#fff;}.cls-4{fill:#245aa1;}.cls-4,.cls-5,.cls-3{fill-rule:evenodd;}.cls-5{fill:#2359a0;}</style></defs><g id="Layer_1-2"><g><circle class="cls-2" cx="21" cy="21" r="21"/><circle class="cls-1" cx="21" cy="21" r="19.32"/><g><path class="cls-5" d="M21.86,25.37s.04-.07,.07-.1l2.25-2.25h0l1.53-1.55h0s.38-.39,.38-.39c.12-.12,.31-.14,.44-.04h.02c.95,.16,1.93,.08,2.85-.22,.91-.29,1.77-.8,2.5-1.53,.89-.89,1.45-1.97,1.7-3.11,.21-1.01,.18-2.06-.11-3.06l-3.8,3.8h0c-.08,.08-.21,.12-.33,.08l-2.91-.89h0c-.1-.03-.19-.11-.22-.22l-.88-2.88c-.05-.12-.02-.26,.07-.36l3.8-3.8c-.99-.29-2.05-.32-3.06-.11-1.14,.24-2.23,.81-3.12,1.69h0c-.72,.72-1.23,1.58-1.53,2.5-.3,.94-.38,1.94-.22,2.91,.02,.1,0,.22-.08,.3h0s-2.38,2.39-2.38,2.39l-1.42,1.42h0s-8.05,8.06-8.05,8.06h0c-.26,.26-.39,.6-.39,.94s.13,.68,.39,.94l3.09,3.09c.13,.13,.27,.23,.43,.29,.16,.06,.33,.1,.51,.1,.18,0,.35-.03,.51-.1,.15-.07,.3-.16,.43-.29l6.02-6.09,.02-.02,.02-.02,1.47-1.49h0Zm-8.33,6.22l-2.76-2.76c-.13-.13-.13-.34,0-.47l2.76-2.76c.13-.13,.34-.13,.47,0l2.76,2.76c.13,.13,.13,.34,0,.47l-2.76,2.76c-.13,.13-.34,.13-.47,0Z"/><path class="cls-3" d="M13.48,15.56l3.7,3.7,.95-.95-3.7-3.7c-.06-.06-.1-.15-.1-.25l.06-1.3-4.38-3.57-1.65,1.65,3.56,4.38,1.3-.06c.09,0,.18,.03,.25,.1Z"/><path class="cls-3" d="M24.87,23.26l6.84,6.87,.15-.15c.26-.26,.39-.6,.39-.94s-.12-.67-.37-.92l-.02-.02-5.92-5.92-1.07,1.08Z"/><path class="cls-3" d="M29,32.84l-6.82-6.85-.72,.73-.38,.39,5.9,5.9c.26,.26,.6,.39,.94,.39s.67-.12,.92-.37l.02-.02,.15-.15Z"/><polygon class="cls-3" points="22.64 25.52 29.47 32.38 31.25 30.6 24.41 23.73 22.64 25.52"/><path class="cls-4" d="M16.72,19.73l-3.6-3.6-1.32,.06c-.11,0-.21-.04-.27-.13l-3.85-4.74c-.11-.13-.1-.33,.03-.45l2.07-2.07c.12-.12,.31-.13,.44-.02l4.73,3.86c.08,.07,.13,.17,.12,.27l-.06,1.32,3.6,3.6,2.03-2.03c-.14-1.02-.05-2.08,.27-3.07,.33-1.01,.89-1.96,1.69-2.76h0c.98-.98,2.18-1.6,3.45-1.87,1.3-.28,2.67-.18,3.92,.3,.17,.06,.26,.26,.19,.43-.02,.05-.04,.09-.08,.12h0l-4.04,4.04,.78,2.55,2.55,.78,4.04-4.04c.13-.13,.34-.13,.47,0,.04,.04,.06,.08,.08,.13,.48,1.25,.58,2.61,.3,3.91-.27,1.26-.89,2.46-1.87,3.45-.8,.8-1.75,1.36-2.77,1.69-1.04,.33-2.14,.42-3.2,.25h0l5.93,5.93,.02,.02c.38,.39,.56,.89,.56,1.39s-.19,1.02-.58,1.41l-.38,.38h0s-2.25,2.25-2.25,2.25l-.39,.39-.02,.02c-.39,.38-.89,.56-1.39,.56s-1.02-.19-1.41-.58l-5.89-5.89-5.81,5.88c-.19,.19-.41,.34-.65,.44-.23,.1-.49,.15-.76,.15-.27,0-.53-.05-.77-.15-.24-.1-.45-.24-.65-.44l-3.09-3.09c-.39-.39-.58-.9-.58-1.41s.19-1.02,.58-1.4h0s7.82-7.83,7.82-7.83h0Zm5.93,5.79l6.83,6.86,1.78-1.78-6.84-6.87-1.77,1.79h0Zm6.36,7.33l-6.82-6.86-.72,.73-.38,.39,5.89,5.89c.26,.26,.6,.39,.94,.39s.67-.12,.92-.37l.02-.02,.15-.15h0Zm-7.14-7.48s.04-.07,.07-.1l2.25-2.25h0l1.53-1.55h0s.38-.39,.38-.39c.11-.13,.31-.14,.44-.04h.02c.95,.16,1.93,.08,2.86-.22,.91-.29,1.77-.81,2.5-1.53,.89-.89,1.45-1.97,1.69-3.12,.22-1.01,.18-2.06-.11-3.06l-3.8,3.8h0c-.08,.08-.21,.12-.33,.08l-2.91-.89h0c-.1-.03-.19-.11-.22-.22l-.88-2.88c-.05-.12-.02-.26,.07-.36l3.8-3.8c-.99-.29-2.05-.32-3.06-.11-1.14,.24-2.23,.81-3.11,1.7h0s0,0,0,0c-.73,.72-1.23,1.58-1.53,2.5-.3,.94-.38,1.94-.22,2.91,.02,.1,0,.22-.08,.3h0s-2.38,2.39-2.38,2.39l-1.42,1.42h0s-8.05,8.06-8.05,8.06h0c-.26,.26-.39,.6-.39,.94s.13,.68,.39,.94l3.09,3.09c.13,.13,.28,.23,.43,.29,.16,.06,.33,.1,.51,.1,.18,0,.35-.03,.51-.1,.15-.07,.3-.16,.43-.3l6.02-6.09,.02-.02,.02-.02,1.47-1.49h0Zm3.01-2.11l6.84,6.87,.16-.15c.26-.26,.39-.6,.39-.94s-.12-.67-.37-.92v-.02s-5.94-5.93-5.94-5.93l-1.07,1.08h0Zm-13.4,5.33l2.29,2.29,2.29-2.29-2.29-2.29-2.29,2.29h0Zm2.06,2.99c.13,.13,.34,.13,.47,0l2.76-2.76c.13-.13,.13-.34,0-.47l-2.76-2.76c-.13-.13-.34-.13-.47,0l-2.76,2.76c-.13,.13-.13,.34,0,.47l2.76,2.76h0Zm-.05-16.03l3.7,3.7,.95-.95-3.7-3.7c-.06-.06-.1-.15-.1-.25l.06-1.3-4.38-3.57-1.65,1.65,3.56,4.38,1.3-.06c.09,0,.18,.03,.25,.1h0Zm-3.28-6.77h0s0,0,0,0Z"/></g></g></g></svg>