<svg xmlns="http://www.w3.org/2000/svg" width="13.44" height="8.917" viewBox="0 0 13.44 8.917"><defs><style>.a{fill:#2359a0;}</style></defs><g transform="translate(-1.643 -10.422)"><g transform="translate(1.643 10.422)"><path class="a" d="M101.145,10.422a1.869,1.869,0,1,1-1.868,1.869,1.869,1.869,0,0,1,1.868-1.869" transform="translate(-91.076 -10.422)"/><path class="a" d="M21.388,10.422a1.869,1.869,0,1,1-1.868,1.869,1.869,1.869,0,0,1,1.868-1.869" transform="translate(-18.018 -10.422)"/><g transform="translate(0 3.575)"><path class="a" d="M104.042,52.976a2.263,2.263,0,0,1-2.848.153,2.084,2.084,0,0,1,.033.359,2.057,2.057,0,0,1-.455,1.286.728.728,0,0,1,.247.137,4.106,4.106,0,0,1,1.342,1.181h3.525A3.536,3.536,0,0,0,104.042,52.976Z" transform="translate(-92.446 -52.976)"/><path class="a" d="M6.526,54.895a.736.736,0,0,1,.177-.119,2.047,2.047,0,0,1-.457-1.288,2.1,2.1,0,0,1,.026-.313,2.268,2.268,0,0,1-2.786-.2,3.538,3.538,0,0,0-1.844,3.115H5.156a4.1,4.1,0,0,1,1.369-1.2Z" transform="translate(-1.643 -52.976)"/></g><g transform="translate(3.35 2.228)"><path class="a" d="M61.262,36.94a1.869,1.869,0,1,1-1.868,1.87,1.869,1.869,0,0,1,1.868-1.87" transform="translate(-57.893 -36.94)"/><path class="a" d="M46.418,79.494a2.286,2.286,0,0,1-3.053,0,3.537,3.537,0,0,0-1.844,3.115h6.74A3.537,3.537,0,0,0,46.418,79.494Z" transform="translate(-41.521 -75.919)"/></g></g></g></svg>