<svg xmlns="http://www.w3.org/2000/svg" viewBox="0 0 143.65 73.65"><defs><style>.cls-1{fill:#282828;}.cls-2,.cls-6{fill:none;}.cls-3{fill:#7f201d;}.cls-4{fill:#ffbe1f;}.cls-5{fill:#007042;}.cls-6,.cls-7,.cls-8{stroke:#282828;}.cls-6,.cls-8{stroke-miterlimit:10;}.cls-6{stroke-width:3.65px;}.cls-7,.cls-8{fill:#fff;}.cls-7{stroke-width:1.29px;}.cls-8{stroke-width:1.63px;}</style></defs><title>behindNew</title><g id="Layer_2" data-name="Layer 2"><g id="note"><path class="cls-1" d="M71.83,1.83a70,70,0,0,0-70,70h140A70,70,0,0,0,71.83,1.83Z"/><polygon class="cls-2" points="70.8 71.83 70.94 72.08 71.09 71.83 70.8 71.83"/><path class="cls-3" d="M1.83,71.83h69L36.06,11.66A69.94,69.94,0,0,0,1.83,71.83Z"/><path class="cls-4" d="M106.27,10.89a70,70,0,0,0-70.21.77L70.8,71.83h.29Z"/><path class="cls-5" d="M141.83,71.83a70,70,0,0,0-35.56-60.94L71.09,71.83Z"/><path class="cls-6" d="M71.83,1.83a70,70,0,0,0-70,70h140A70,70,0,0,0,71.83,1.83Z"/><polyline class="cls-7" points="72.04 72.2 78.19 72.17 77.98 34.08 87.46 34.03 72.01 7.19 56.19 33.54 65.67 33.49 65.87 69.26"/><path class="cls-8" d="M71.83,65a7.59,7.59,0,0,0-7.59,7.59H79.42A7.59,7.59,0,0,0,71.83,65Z"/></g></g></svg>