<svg xmlns="http://www.w3.org/2000/svg" viewBox="0 0 100 100">
  <defs>
    <style>
      .cls-1, .cls-3 {
        fill: #fff;
      }

      .cls-2 {
        fill: none;
      }

      .cls-2, .cls-3 {
        stroke: #00753b;
      }

      .cls-4 {
        fill: #007042;
        fill-rule: evenodd;
      }
    </style>
  </defs>
  <g id="Group_3695" data-name="Group 3695" transform="translate(-407 -225)">
    <g id="group-78" transform="translate(407 225)">
      <circle id="ellipse" class="cls-1" cx="50" cy="50" r="50"/>
      <circle id="ellipse-2" data-name="ellipse" class="cls-2" cx="46" cy="46" r="46" transform="translate(4 4)"/>
    </g>
    <g id="group-75" transform="translate(428.429 239.285)">
      <path id="path" class="cls-3" d="M2.722,12.7a17.264,17.264,0,0,1,4.083-5.9,18.717,18.717,0,0,1,7.259-4.537A31.365,31.365,0,0,1,26.541,0c13.611,0,24.5,7.713,24.5,17.014a20.389,20.389,0,0,1-.454,5.671c.454,5.9,2.722,6.805,2.949,7.486.681.681,3.176,2.042,2.949,5.218-.681.907-1.361,1.588-4.31,1.815a1.914,1.914,0,0,0,.454,1.588c1.361,1.815,2.268,3.4-.907,4.991-.681.454,1.815,1.134,1.588,3.4,0,.907-2.268,2.042-2.5,2.722a2.485,2.485,0,0,0,0,1.815c.454,1.134,1.134,1.815.681,3.4-.681,2.268-6.805,1.815-8.393,1.815-2.268-.227-3.63.681-4.991,1.361-1.588.681-1.815,9.981-2.722,11.569-1.815,2.949-20.643,1.361-25.407-1.815,2.042-4.31,3.176-12.25,2.949-13.838C12.93,50.36,11.8,49,11.569,49,5.671,41.74,0,38.11,0,25.18A31.449,31.449,0,0,1,2.722,12.7Z" transform="translate(0 0)"/>
      <g id="group" transform="translate(2.64 2.676)">
        <path id="path-2" data-name="path" class="cls-4" d="M1.246,18.012v.907a2.5,2.5,0,0,1,0,1.815A6.754,6.754,0,0,0,2.153,25.5c0,.227.227.227.227.454a4.623,4.623,0,0,0,3.63,3.4c.227,0,.227,0,.454.454a4.556,4.556,0,0,0,6.579,3.4H13.5a2.063,2.063,0,0,0,1.815.907c.227,0,.227,0,.227.227,0,.681-.227,1.361-.227,2.268,0,.227,0,.454.227.454.227.227.681.454.907.681s.454,0,.454-.227c1.134-1.815,2.5-3.63,3.63-5.444.227-.227.454-.454.681-.454a6.673,6.673,0,0,0,3.63-3.4c.227-.227.227-.227.454-.227a7.541,7.541,0,0,0,10.435-2.722c.227-.227.227-.227.681-.227a7.335,7.335,0,0,0,7.259-6.352c0-.227,0-.227.227-.454a7.628,7.628,0,0,0-2.722-9.981c-.227,0-.227-.227-.454-.454a7.635,7.635,0,0,0-7.032-3.63A.833.833,0,0,1,33,3.948a4.352,4.352,0,0,0-4.537-1.361h-.681a4.18,4.18,0,0,0-4.537-.681H22.8a2.969,2.969,0,0,0-4.31.454c0,.227-.227.227-.454.227a7.07,7.07,0,0,0-7.259,2.949l-.454.454A7.18,7.18,0,0,0,5.783,10.98a.488.488,0,0,1-.454.454A6.934,6.934,0,0,0,1.246,18.012Z" transform="translate(-1.164 -1.18)"/>
      </g>
    </g>
  </g>
</svg>
