<svg xmlns="http://www.w3.org/2000/svg" viewBox="0 0 42 42"><defs><style>.cls-1{fill:#fff;}.cls-2{fill:#2359a0;}.cls-3{fill:none;stroke:#2359a0;stroke-miterlimit:10;stroke-width:0.84px;}</style></defs><title>Nutrition</title><g id="Layer_2" data-name="Layer 2"><g id="Layer_1-2" data-name="Layer 1"><circle class="cls-1" cx="21" cy="21" r="21"/><path class="cls-2" d="M24.66,24.07c0-.28,0-.48,0-.68q0-7.14,0-14.27c0-1.43.38-2.06,1.49-2.52a3.34,3.34,0,0,1,3.52.58,2.24,2.24,0,0,1,.56,1.66q0,7.44,0,14.87,0,4.95,0,9.9a1.73,1.73,0,0,1-1.3,2,2.35,2.35,0,0,1-2.62-.6,2.41,2.41,0,0,1-.38-1.28c0-3,0-6,0-8.94,0-.22,0-.43,0-.7Z"/><path class="cls-2" d="M15.48,13.58h1.2c0-.22,0-.43,0-.64,0-1.94,0-3.88,0-5.82,0-.48.11-.88.65-.87s.61.41.61.86c0,1.94,0,3.88,0,5.82,0,.21,0,.43,0,.67h1.2c0-.31,0-.61,0-.9,0-1.86,0-3.72,0-5.58,0-.48.12-.86.67-.85s.6.41.59.85c0,2.66,0,5.32,0,8,0,1.73-.66,2.51-2.46,2.8,0,.21,0,.44,0,.68q0,7.53,0,15.06c0,1.18-.34,1.69-1.3,2a1.81,1.81,0,0,1-2.38-1.43,6.28,6.28,0,0,1,0-.84q0-7.41,0-14.82v-.66c-.31-.07-.58-.11-.84-.2a2.11,2.11,0,0,1-1.61-2.18c0-2.82,0-5.64,0-8.46,0-.47.12-.81.63-.83s.63.38.63.82q0,2.91,0,5.82c0,.22,0,.43,0,.68h1.2c0-.21,0-.42,0-.63q0-2.79,0-5.58c0-.14,0-.28,0-.42a.6.6,0,0,1,.65-.69c.44,0,.62.28.62.71,0,2,0,4,0,5.94C15.48,13.12,15.48,13.33,15.48,13.58Z"/><circle class="cls-3" cx="21" cy="21" r="19.32"/></g></g></svg>