<svg xmlns="http://www.w3.org/2000/svg" width="301" height="68.935" viewBox="0 0 301 68.935"><defs><style>.a{font-size:12px;font-family:Roboto-Medium, Roboto;font-weight:500;}.b{fill:#1a1818;}.c{fill:#0069a8;}.d{fill:#fff;}</style></defs><g transform="translate(-10 -787)"><text class="a" transform="translate(61 798)"><tspan x="-50.215" y="0">In partnership with</tspan></text><g transform="translate(-9 786)"><g transform="translate(132.487 26.136)"><path class="b" d="M124.232,25.407h3.08l5.176,14.685h-3.1L128.4,36.97h-5.3l-.965,3.122h-3.019Zm-.431,9.284h3.881l-1.314-4.232c-.246-.78-.6-2.258-.6-2.258h-.041s-.37,1.479-.616,2.258Z" transform="translate(-119.118 -25.407)"/><path class="b" d="M131.062,34.834c0-3.287,1.868-5.565,4.5-5.565a3.339,3.339,0,0,1,2.978,1.562h.061V25.407h2.794V40.092H138.7V38.717h-.041a3.5,3.5,0,0,1-3.141,1.683C132.869,40.4,131.062,38.244,131.062,34.834Zm7.6.062c0-2.013-.657-3.368-2.443-3.368-1.54,0-2.321,1.355-2.321,3.306,0,2.034.8,3.225,2.239,3.225C137.8,38.06,138.66,36.827,138.66,34.9Z" transform="translate(-117.507 -25.407)"/><path class="b" d="M140.9,29.063h2.835l1.684,5.463c.308,1.007.472,1.684.472,1.684h.041s.144-.678.452-1.684l1.725-5.463H150.9L147.224,39.6h-2.669Z" transform="translate(-116.18 -24.914)"/><path class="b" d="M156.468,38.46h-.041a3.232,3.232,0,0,1-3.1,1.417c-2.156,0-3.677-1.13-3.677-3.224,0-2.321,1.89-3.061,4.231-3.389,1.747-.246,2.548-.39,2.548-1.19,0-.76-.6-1.254-1.767-1.254-1.314,0-1.951.473-2.034,1.48h-2.484c.082-1.849,1.458-3.472,4.538-3.472,3.163,0,4.436,1.416,4.436,3.881V38.07c0,.8.124,1.273.37,1.458v.1H156.8A2.853,2.853,0,0,1,156.468,38.46Zm.02-2.547V34.332a7.781,7.781,0,0,1-1.951.616c-1.458.329-2.178.657-2.178,1.643s.657,1.335,1.643,1.335C155.6,37.926,156.489,36.941,156.489,35.913Z" transform="translate(-115 -24.946)"/><path class="b" d="M162.282,30.535h.061a3.423,3.423,0,0,1,3.122-1.725,3.625,3.625,0,0,1,3.635,3.943v6.881h-2.794v-6.47a1.753,1.753,0,0,0-1.827-1.93,2.2,2.2,0,0,0-2.136,2.424v5.976H159.55V29.1h2.732Z" transform="translate(-113.665 -24.948)"/><path class="b" d="M169.034,34.375c0-3.142,2.053-5.565,5.258-5.565a4.472,4.472,0,0,1,4.785,3.861h-2.732a1.93,1.93,0,0,0-1.93-1.623c-1.684,0-2.547,1.295-2.547,3.327,0,1.993.8,3.327,2.506,3.327a1.967,1.967,0,0,0,2.115-1.787h2.691a4.414,4.414,0,0,1-4.745,4.025A5.239,5.239,0,0,1,169.034,34.375Z" transform="translate(-112.386 -24.948)"/><path class="b" d="M178.556,34.355a5.213,5.213,0,0,1,5.2-5.545c3.389,0,5.2,2.588,5.2,6.345h-7.64A2.619,2.619,0,0,0,184,37.785a1.968,1.968,0,0,0,2.034-1.294h2.751a4.519,4.519,0,0,1-4.764,3.45C180.527,39.941,178.556,37.5,178.556,34.355Zm2.794-1.13h4.682a2.222,2.222,0,0,0-2.239-2.258A2.344,2.344,0,0,0,181.35,33.225Z" transform="translate(-111.101 -24.948)"/><path class="b" d="M188.418,34.834c0-3.287,1.869-5.565,4.5-5.565a3.339,3.339,0,0,1,2.978,1.562h.061V25.407h2.793V40.092h-2.691V38.717h-.041a3.506,3.506,0,0,1-3.141,1.683C190.226,40.4,188.418,38.244,188.418,34.834Zm7.6.062c0-2.013-.657-3.368-2.443-3.368-1.54,0-2.321,1.355-2.321,3.306,0,2.034.8,3.225,2.239,3.225C195.155,38.06,196.017,36.827,196.017,34.9Z" transform="translate(-109.771 -25.407)"/><path class="b" d="M120.059,44.827H126.8c2.834,0,4.723,1.643,4.723,4.088a3.377,3.377,0,0,1-2.691,3.553v.061c1.355.39,2.054,1.171,2.239,2.957.205,2.075.123,3.655.637,3.882v.143h-2.855c-.369-.165-.411-1.808-.533-3.389-.124-1.6-1.027-2.506-2.876-2.506h-2.4v5.895h-2.978Zm2.978,6.49H126.2c1.622,0,2.423-.842,2.423-2.013,0-1.19-.759-2.073-2.341-2.073h-3.245Z" transform="translate(-118.991 -22.788)"/><path class="b" d="M131.074,53.775a5.214,5.214,0,0,1,5.2-5.546c3.389,0,5.2,2.589,5.2,6.346h-7.639a2.618,2.618,0,0,0,2.69,2.63,1.968,1.968,0,0,0,2.034-1.294H141.3a4.519,4.519,0,0,1-4.764,3.45C133.046,59.361,131.074,56.918,131.074,53.775Zm2.794-1.13h4.683a2.222,2.222,0,0,0-2.239-2.258A2.344,2.344,0,0,0,133.868,52.645Z" transform="translate(-117.505 -22.329)"/><path class="b" d="M140.789,55.644h2.588a2.026,2.026,0,0,0,2.3,1.745c1.231,0,1.93-.472,1.93-1.212,0-1.006-1.336-1.109-2.772-1.4-1.891-.37-3.738-.883-3.738-3.184,0-2.28,1.89-3.368,4.292-3.368,2.773,0,4.314,1.377,4.518,3.493h-2.525c-.124-1.13-.843-1.541-2.034-1.541-1.088,0-1.808.411-1.808,1.17,0,.9,1.4.987,2.9,1.294,1.766.37,3.718.864,3.718,3.329,0,2.114-1.808,3.388-4.436,3.388C142.657,59.361,140.952,57.882,140.789,55.644Z" transform="translate(-116.195 -22.329)"/><path class="b" d="M149.643,53.775a5.214,5.214,0,0,1,5.2-5.546c3.389,0,5.2,2.589,5.2,6.346H152.4a2.619,2.619,0,0,0,2.69,2.63,1.968,1.968,0,0,0,2.034-1.294h2.752a4.521,4.521,0,0,1-4.764,3.45C151.614,59.361,149.643,56.918,149.643,53.775Zm2.793-1.13h4.682a2.222,2.222,0,0,0-2.239-2.258A2.345,2.345,0,0,0,152.436,52.645Z" transform="translate(-115.001 -22.329)"/><path class="b" d="M166.238,57.88H166.2a3.231,3.231,0,0,1-3.1,1.417c-2.156,0-3.676-1.13-3.676-3.224,0-2.321,1.89-3.061,4.231-3.389,1.745-.247,2.547-.39,2.547-1.192,0-.759-.6-1.253-1.767-1.253-1.314,0-1.951.473-2.033,1.48h-2.485c.083-1.849,1.458-3.472,4.54-3.472,3.163,0,4.436,1.416,4.436,3.881V57.49c0,.8.123,1.273.369,1.458v.1h-2.69A2.852,2.852,0,0,1,166.238,57.88Zm.02-2.547V53.752a7.766,7.766,0,0,1-1.951.616c-1.458.329-2.177.657-2.177,1.643s.657,1.335,1.642,1.335C165.376,57.346,166.259,56.36,166.259,55.333Z" transform="translate(-113.682 -22.326)"/><path class="b" d="M172.011,50.182h.061a2.761,2.761,0,0,1,2.588-1.807,1.827,1.827,0,0,1,.657.082V50.9h-.061c-1.828-.185-3.142.78-3.142,3v5.135H169.32V48.5h2.691Z" transform="translate(-112.347 -22.309)"/><path class="b" d="M175,53.8c0-3.142,2.054-5.567,5.258-5.567a4.474,4.474,0,0,1,4.786,3.862h-2.732a1.93,1.93,0,0,0-1.93-1.623c-1.684,0-2.547,1.295-2.547,3.327,0,1.993.8,3.326,2.5,3.326a1.967,1.967,0,0,0,2.117-1.786h2.69a4.413,4.413,0,0,1-4.744,4.025A5.24,5.24,0,0,1,175,53.8Z" transform="translate(-111.58 -22.329)"/><path class="b" d="M187.806,50.352h.061a3.362,3.362,0,0,1,3.061-1.664,3.626,3.626,0,0,1,3.635,3.944v6.881h-2.794v-6.47a1.753,1.753,0,0,0-1.827-1.93,2.2,2.2,0,0,0-2.136,2.424v5.976h-2.793V44.827h2.793Z" transform="translate(-110.23 -22.788)"/><path class="b" d="M197.628,52.256c0-4.355,2.711-7.682,7.044-7.682,3.615,0,5.75,2.157,6.058,4.95h-2.957a2.9,2.9,0,0,0-3.1-2.445c-2.711,0-4,2.258-4,5.176,0,3,1.562,5.155,4.025,5.155a2.959,2.959,0,0,0,3.163-2.589h2.917a5.2,5.2,0,0,1-1.623,3.472,6.207,6.207,0,0,1-4.457,1.56C200.564,59.854,197.628,56.671,197.628,52.256Z" transform="translate(-108.529 -22.822)"/><path class="b" d="M209.928,53.8a5.5,5.5,0,1,1,5.5,5.565A5.357,5.357,0,0,1,209.928,53.8Zm8.173,0c0-2.054-.965-3.45-2.669-3.45-1.725,0-2.67,1.4-2.67,3.45s.945,3.43,2.67,3.43C217.137,57.225,218.1,55.849,218.1,53.8Z" transform="translate(-106.87 -22.329)"/><path class="b" d="M220.77,48.517h2.69v1.416h.061a3.443,3.443,0,0,1,3.061-1.7,3.143,3.143,0,0,1,2.915,1.849h.042a3.675,3.675,0,0,1,3.163-1.849c2.218,0,3.47,1.438,3.47,3.738v7.086H233.38V52.439c0-1.19-.6-1.807-1.623-1.807-1.17,0-1.89.9-1.89,2.3v6.12h-2.793V52.439c0-1.19-.6-1.807-1.622-1.807-1.13,0-1.891.9-1.891,2.3v6.12H220.77Z" transform="translate(-105.408 -22.329)"/><path class="b" d="M235.914,48.517h2.69v1.315h.061a3.683,3.683,0,0,1,3.1-1.6c2.793,0,4.579,2.28,4.579,5.567,0,3.409-1.848,5.565-4.559,5.565a3.39,3.39,0,0,1-3.039-1.5h-.041V62.5h-2.793Zm7.6,5.36c0-1.992-.7-3.388-2.423-3.388-1.745,0-2.445,1.5-2.445,3.388,0,1.911.884,3.163,2.547,3.163C242.609,57.04,243.512,55.87,243.512,53.877Z" transform="translate(-103.365 -22.329)"/><path class="b" d="M252.946,59.019V57.787h-.062a3.382,3.382,0,0,1-3.019,1.521c-2.341,0-3.655-1.5-3.655-3.8V48.483h2.772v6.552c0,1.232.555,1.91,1.745,1.91a2.128,2.128,0,0,0,2.115-2.382v-6.08h2.793V59.019Z" transform="translate(-101.976 -22.295)"/><path class="b" d="M255.4,48.873h1.458V45.588h2.732v3.285H261.4v1.849H259.59v5.586a.924.924,0,0,0,1.047,1.047c.348,0,.82-.02.82-.02v2.054s-.637.041-1.745.041c-1.355,0-2.854-.535-2.854-2.526V50.722H255.4Z" transform="translate(-100.737 -22.685)"/><path class="b" d="M261.861,44.827h2.793v2.506h-2.793Zm0,4.149h2.793V59.512h-2.793Z" transform="translate(-99.865 -22.788)"/><path class="b" d="M268.629,49.955h.061a3.425,3.425,0,0,1,3.122-1.726,3.627,3.627,0,0,1,3.636,3.944v6.881h-2.794v-6.47a1.753,1.753,0,0,0-1.827-1.93,2.2,2.2,0,0,0-2.137,2.424v5.976H265.9V48.517h2.732Z" transform="translate(-99.321 -22.329)"/><path class="b" d="M275.578,59.361h2.772c.226.657.822,1.17,2.115,1.17,1.582,0,2.341-.759,2.341-2.2V57.184h-.061a3.407,3.407,0,0,1-2.752,1.232,4.735,4.735,0,0,1-4.642-5.032c0-3.142,1.89-5.156,4.56-5.156a3.4,3.4,0,0,1,2.915,1.4h.042V48.517h2.69v9.736a4.085,4.085,0,0,1-1.253,3.2,5.51,5.51,0,0,1-3.8,1.192C277.632,62.648,275.866,61.415,275.578,59.361Zm7.373-6.038c0-1.541-.822-2.855-2.506-2.855-1.417,0-2.362,1.11-2.362,2.876,0,1.787.944,2.834,2.382,2.834C282.233,56.178,282.951,54.884,282.951,53.323Z" transform="translate(-98.046 -22.329)"/></g><g transform="translate(20 20)"><rect class="c" width="104.409" height="49.935"/><g transform="translate(16.634 12.597)"><path class="d" d="M34.721,48.147a21.875,21.875,0,0,1-.051-2.518l1.176-13.613h4.37l-1.2,13.732c-.259,2.972.885,5.091,3.8,5.091,2.975,0,4.546-2.155,4.805-4.791l1.24-14.032h4.368L52.018,45.872c-.488,5.334-3.958,9.33-9.568,9.33-4.376,0-7.2-2.884-7.73-7.054" transform="translate(-34.657 -30.976)"/><path class="d" d="M51.909,43.588C52.48,37.055,56.8,31.637,64.27,31.637A10.091,10.091,0,0,1,70.01,33.33l-.5,5.4a6.4,6.4,0,0,0-5.656-2.686c-4.647,0-7.2,3.291-7.561,7.457-.353,4.056,1.7,7.355,6.2,7.355a8.279,8.279,0,0,0,6.23-2.8L68.244,53.6A12.361,12.361,0,0,1,62.153,55.3c-7.39,0-10.775-5.6-10.243-11.716" transform="translate(-32.337 -31.028)"/><path class="d" d="M71.161,32.016H75.52L73.929,50.5h6.244c.439,0,1.929-.024,2.332-.048-.023.222-.4,4.271-.4,4.271H69.184Z" transform="translate(-30 -30.976)"/><path class="d" d="M92.255,40.617a5.474,5.474,0,0,0,.322-.952l.07,0a5.479,5.479,0,0,0,.166.961c.238,1.035,1.937,6.784,1.937,6.784h-5.5s2.948-6.641,3.007-6.789M93.373,31.1l-.3,0L81.138,54.847h4.631l1.677-3.6h8.407l1.049,3.6h4.62Z" transform="translate(-28.388 -31.1)"/></g></g></g></g></svg>