<svg xmlns="http://www.w3.org/2000/svg" viewBox="0 0 42 42"><defs><style>.cls-1{fill:#fff;}.cls-2{fill:none;stroke:#007042;stroke-miterlimit:10;stroke-width:0.84px;}.cls-3{fill:#007042;}</style></defs><title>activity</title><g id="Layer_2" data-name="Layer 2"><g id="Layer_1-2" data-name="Layer 1"><circle class="cls-1" cx="21" cy="21" r="21"/><circle class="cls-2" cx="21" cy="21" r="19.32"/><path class="cls-3" d="M32.82,11.66c-.18-.25-1-.1-1.35.19s-.25.62-.6.93a8.88,8.88,0,0,1-3.06,1.89A16.39,16.39,0,0,1,26.1,12.3c-.47-.71-1.68-.76-2.13-1.06a.38.38,0,0,1-.14-.17A2.5,2.5,0,1,0,21.38,9a2.49,2.49,0,0,0,.51,1.12c0,.2-.08.39-.3.43,0,0-1.27.07-1.72.13-1.06.28-4.06,1.45-4.06,1.45s-2.69,3-3.18,3.44c-.19.17-.75.26-1,.46s-.35.59-.21.83a1.27,1.27,0,0,0,1.41.49c.19-.11.53-.81.73-1,.64-.57,3.23-2.24,3.23-2.24l2.33-.76s-1.76,5.22-2.58,6A3.28,3.28,0,0,0,16,22c-.12.43-1.49,3.41-1.68,4.36C12,28.11,11.37,31,10.47,31.79a2.4,2.4,0,0,1-.85.8c-.31.18-.64.56-.45.92s2.31,2.71,2.82,2.4c.88-.53-.61-2.49-.34-2.81a49.31,49.31,0,0,1,4-4.67,2.86,2.86,0,0,0,1.24-1.64c.4-1.47,1.5-2.5,1.92-3.42a14.75,14.75,0,0,1,3.31,3.35C19.63,28,19.64,29.81,18,30.66c-.76.39-1.11.44-.93,1.17S19,35,19.61,34.55s-.7-2-.07-2.81c1.08-1.4,4.44-3.2,5.12-3.68s1-1.5-.07-2.79c-.35-.4-2.82-3.63-3.62-4.31,1.32-2.4,3.24-6.39,3.24-6.39a17.78,17.78,0,0,0,2.55,2.15c.86.46.85.78,2-.12s1.85-2.22,3.1-3.21c.47-.37.53-.44.69-.77S33,11.88,32.82,11.66Z"/></g></g></svg>