<svg xmlns="http://www.w3.org/2000/svg" width="30" height="30" viewBox="0 0 30 30"><defs><style>.cls-1{fill:#fff;}.cls-2{fill:#2359a0;}</style></defs><title>dropdown30x30</title><g id="Layer_2" data-name="Layer 2"><g id="scale"><rect class="cls-1" width="30" height="30" rx="3" ry="3" transform="translate(30 0) rotate(90)"/><path class="cls-2" d="M14.5,20.57,6.21,12.29a.71.71,0,0,1,0-1L8.07,9.43a.67.67,0,0,1,.5-.21.69.69,0,0,1,.5.21L15,15.36l5.93-5.93a.69.69,0,0,1,.5-.21.67.67,0,0,1,.5.21l1.86,1.85a.71.71,0,0,1,0,1L15.5,20.57a.7.7,0,0,1-1,0Z"/></g></g></svg>