<svg xmlns="http://www.w3.org/2000/svg" viewBox="0 0 25 30.22"><defs><style>.cls-1{fill:#007042;}</style></defs><title>steps</title><g id="Layer_2" data-name="Layer 2"><g id="Layer_1-2" data-name="Layer 1"><path class="cls-1" d="M24,9c.12,1.38-2.26,4.87-2.42,8-.1,1.69-1.18,5.48-2.19,6.16a4,4,0,0,1-3.09.51c-1.37-.31-1.91-2.1-1.73-3.58,0-.84,1.33-3,1.55-3.56a10.59,10.59,0,0,0,.71-3.85c0-.8-.85-1.82-1.37-2.74-.63-1.12-1.13-1.88-1.06-2.5.33-3.1,2.57-3.95,5.29-3.2S24,6.86,24,9Z"/><ellipse class="cls-1" cx="15.4" cy="2.11" rx="1.69" ry="2.11"/><ellipse class="cls-1" cx="18.79" cy="2.38" rx="1" ry="1.32"/><ellipse class="cls-1" cx="21.03" cy="3.11" rx="0.91" ry="1.12"/><ellipse class="cls-1" cx="22.94" cy="4.4" rx="0.8" ry="0.99"/><ellipse class="cls-1" cx="24.31" cy="6.07" rx="0.69" ry="0.99"/><path class="cls-1" d="M1,15.45c-.12,1.38,2.26,4.87,2.42,8,.1,1.69,1.18,5.48,2.19,6.16a4,4,0,0,0,3.09.51c1.37-.31,1.91-2.1,1.73-3.58,0-.84-1.33-3-1.55-3.56a10.59,10.59,0,0,1-.71-3.85c0-.8.85-1.82,1.37-2.74.63-1.12,1.13-1.88,1.06-2.5-.33-3.1-2.57-3.95-5.29-3.2S1,13.26,1,15.45Z"/><ellipse class="cls-1" cx="9.6" cy="8.52" rx="1.69" ry="2.11"/><ellipse class="cls-1" cx="6.21" cy="8.79" rx="1" ry="1.32"/><ellipse class="cls-1" cx="3.97" cy="9.51" rx="0.91" ry="1.12"/><ellipse class="cls-1" cx="2.06" cy="10.81" rx="0.8" ry="0.99"/><ellipse class="cls-1" cx="0.69" cy="12.47" rx="0.69" ry="0.99"/></g></g></svg>