<svg xmlns="http://www.w3.org/2000/svg" viewBox="0 0 20.53 27"><defs><style>.cls-1{fill:#ebebeb;}.cls-1,.cls-2,.cls-3,.cls-4{fill-rule:evenodd;}.cls-2{fill:#d3deec;}.cls-3{fill:#2359a0;}.cls-4{fill:#007042;}</style></defs><title>survey</title><g id="Layer_2" data-name="Layer 2"><g id="Layer_1-2" data-name="Layer 1"><path class="cls-1" d="M13,.65H2A1.31,1.31,0,0,0,.65,2h0V25h0A1.31,1.31,0,0,0,2,26.35H18.57A1.31,1.31,0,0,0,19.87,25V7.56h-5A2,2,0,0,1,13.55,7h0A2,2,0,0,1,13,5.61v-5Z"/><path class="cls-2" d="M19.42,6.91l-5.79-5.8v4.5a1.3,1.3,0,0,0,.38.92h0a1.3,1.3,0,0,0,.92.38Z"/><path class="cls-3" d="M2,0H13.3a.33.33,0,0,1,.25.11L20.41,7a.33.33,0,0,1,.11.25V25a2,2,0,0,1-2,2H2a2,2,0,0,1-2-2H0V2H0A2,2,0,0,1,2,0H2ZM3.75,17.23H9.8a.33.33,0,1,0,0-.65H3.75a.33.33,0,1,0,0,.65Zm0-3.6H11A.33.33,0,0,0,11,13H3.75a.33.33,0,0,0,0,.65Zm0-3.39h8.57a.33.33,0,1,0,0-.65H3.75a.33.33,0,1,0,0,.65ZM19.88,7.57h-5a2,2,0,0,1-2-2v-5H2A1.31,1.31,0,0,0,.65,2h0V25h0A1.31,1.31,0,0,0,2,26.35H18.57A1.31,1.31,0,0,0,19.87,25V7.57ZM13.62,1.11v4.5a1.3,1.3,0,0,0,1.3,1.3h4.49Z"/><path class="cls-4" d="M8.43,22.12l2.31-2.93,1.08.87h0a.17.17,0,0,0,.24,0c.63-.89,1.24-1.83,1.8-2.8h0c.56-1,1.08-2,1.53-3h0a.17.17,0,0,0-.1-.22L14,13.51,15.39,10l2.13.83a1.55,1.55,0,0,1,.88,2,37.56,37.56,0,0,1-2.6,5.47,37.52,37.52,0,0,1-3.44,5,1.54,1.54,0,0,1-2.16.23Z"/><path class="cls-3" d="M10.57,18.85,8.06,22a.17.17,0,0,0,0,.24h0L10,23.81a1.89,1.89,0,0,0,2.63-.28,37.92,37.92,0,0,0,3.47-5A38,38,0,0,0,18.73,13a1.88,1.88,0,0,0-1.08-2.42l-2.29-.89a.17.17,0,0,0-.22.1h0l-1.5,3.77a.17.17,0,0,0,.09.22h0l1.28.5c-.43.93-.92,1.87-1.44,2.78h0c-.52.9-1.09,1.79-1.68,2.63l-1.07-.86a.17.17,0,0,0-.24,0ZM8.43,22.12l2.31-2.93,1.08.87h0a.17.17,0,0,0,.24,0c.63-.89,1.24-1.83,1.8-2.8h0c.56-1,1.08-2,1.53-3h0a.17.17,0,0,0-.1-.22L14,13.51,15.4,10l2.13.83a1.55,1.55,0,0,1,.88,2,37.49,37.49,0,0,1-2.6,5.47,37.47,37.47,0,0,1-3.44,5,1.54,1.54,0,0,1-2.16.23L8.43,22.12Zm7-7.87h0Z"/></g></g></svg>